<?xml version="1.0" encoding="UTF-8" standalone="no"?>
<!-- Created with Inkscape (http://www.inkscape.org/) -->

<svg
   xmlns:dc="http://purl.org/dc/elements/1.1/"
   xmlns:cc="http://creativecommons.org/ns#"
   xmlns:rdf="http://www.w3.org/1999/02/22-rdf-syntax-ns#"
   xmlns:svg="http://www.w3.org/2000/svg"
   xmlns="http://www.w3.org/2000/svg"
   xmlns:sodipodi="http://sodipodi.sourceforge.net/DTD/sodipodi-0.dtd"
   xmlns:inkscape="http://www.inkscape.org/namespaces/inkscape"
   width="48px"
   height="48px"
   id="svg2816"
   version="1.1"
   inkscape:version="0.48.2 r9819"
   sodipodi:docname="traffic-sprite-train-thalys.svg"
   inkscape:export-filename="C:\Users\weinert\Pictures\traffic-sprite-train-thalys.png"
   inkscape:export-xdpi="90"
   inkscape:export-ydpi="90">
  <defs
     id="defs2818">
    <inkscape:perspective
       sodipodi:type="inkscape:persp3d"
       inkscape:vp_x="0 : 24 : 1"
       inkscape:vp_y="0 : 1000 : 0"
       inkscape:vp_z="48 : 24 : 1"
       inkscape:persp3d-origin="24 : 16 : 1"
       id="perspective2824" />
    <inkscape:perspective
       id="perspective2876"
       inkscape:persp3d-origin="0.5 : 0.33333333 : 1"
       inkscape:vp_z="1 : 0.5 : 1"
       inkscape:vp_y="0 : 1000 : 0"
       inkscape:vp_x="0 : 0.5 : 1"
       sodipodi:type="inkscape:persp3d" />
  </defs>
  <sodipodi:namedview
     id="base"
     pagecolor="#ffffff"
     bordercolor="#666666"
     borderopacity="1.0"
     inkscape:pageopacity="0.0"
     inkscape:pageshadow="2"
     inkscape:zoom="31.619408"
     inkscape:cx="16.804469"
     inkscape:cy="34.055866"
     inkscape:current-layer="layer1"
     showgrid="true"
     inkscape:grid-bbox="true"
     inkscape:document-units="px"
     inkscape:snap-grids="false"
     inkscape:window-width="1050"
     inkscape:window-height="1658"
     inkscape:window-x="-8"
     inkscape:window-y="-8"
     inkscape:window-maximized="1">
    <inkscape:grid
       type="xygrid"
       id="grid2826"
       empspacing="5"
       visible="true"
       enabled="true"
       snapvisiblegridlinesonly="true" />
  </sodipodi:namedview>
  <metadata
     id="metadata2821">
    <rdf:RDF>
      <cc:Work
         rdf:about="">
        <dc:format>image/svg+xml</dc:format>
        <dc:type
           rdf:resource="http://purl.org/dc/dcmitype/StillImage" />
        <dc:title></dc:title>
      </cc:Work>
    </rdf:RDF>
  </metadata>
  <g
     id="layer1"
     inkscape:label="Layer 1"
     inkscape:groupmode="layer">
    <path
       style="fill:none;stroke:#000000;stroke-width:1px;stroke-linecap:round;stroke-linejoin:miter;stroke-opacity:1"
       d="m 28.561203,26.563609 4.987369,4.987368"
       id="path2842" />
    <path
       id="path3616"
       d="m 19.484813,26.563609 -4.987369,4.987368"
       style="fill:none;stroke:#000000;stroke-width:1px;stroke-linecap:round;stroke-linejoin:miter;stroke-opacity:1" />
    <path
       sodipodi:nodetypes="cczc"
       id="path3698"
       d="m 30.758066,22.82161 c 0,0 -13.622091,-0.249617 -13.622091,-0.249617 0,0 0.939715,4.830936 6.680065,4.992351 5.740349,0.161425 6.942026,-4.742734 6.942026,-4.742734 z"
       style="fill:#a41b32;fill-opacity:1;stroke:#75182c;stroke-width:1px;stroke-linecap:butt;stroke-linejoin:miter;stroke-opacity:1"
       inkscape:connector-curvature="0" />
    <path
       style="fill:none;stroke:#000000;stroke-width:1px;stroke-linecap:butt;stroke-linejoin:miter;stroke-opacity:1"
       d="m 17.533233,28.546165 12.824662,0"
       id="path3618" />
    <path
       style="fill:none;stroke:#000000;stroke-width:1px;stroke-linecap:butt;stroke-linejoin:miter;stroke-opacity:1"
       d="m 15.550677,30.528722 16.727819,0"
       id="path3620" />
    <g
       id="g3722">
      <path
         style="fill:#d3d7cf;stroke:none"
         d="m 19.348769,21.510081 c -1.115597,-0.907042 -2.099815,-3.113538 -3.309592,-6.509469 2.141553,2.977999 2.659135,5.106631 6.939467,7.051925 l -3.629875,-0.542456 z"
         id="path3702"
         sodipodi:nodetypes="cccc" />
      <path
         sodipodi:nodetypes="ccccc"
         id="path3716"
         d="m 17.512073,15.001755 -1.49919,-0.01531 1.403485,3.038606 2.366751,0 c -1.278971,-3.075619 -1.532841,-3.065584 -2.271046,-3.023293 z"
         style="fill:#babdb6;fill-opacity:1;stroke:none" />
      <path
         style="fill:#888a85;fill-opacity:1;stroke:none"
         d="m 17.762301,15.001755 1.550959,3.023293 0.720087,0 c -1.278971,-3.075619 -1.532841,-3.065583 -2.271046,-3.023293 z"
         id="path3718"
         sodipodi:nodetypes="cccc" />
    </g>
    <g
       id="g3727"
       transform="matrix(-1,0,0,1,48.095182,0)">
      <path
         sodipodi:nodetypes="cccc"
         id="path3729"
         d="m 19.348769,21.510081 c -1.115597,-0.907042 -2.099815,-3.113538 -3.309592,-6.509469 2.141553,2.977999 2.659135,5.106631 6.939467,7.051925 l -3.629875,-0.542456 z"
         style="fill:#d3d7cf;stroke:none" />
      <path
         style="fill:#babdb6;fill-opacity:1;stroke:none"
         d="m 17.512073,15.001755 -1.49919,-0.01531 1.403485,3.038606 2.366751,0 c -1.278971,-3.075619 -1.532841,-3.065584 -2.271046,-3.023293 z"
         id="path3731"
         sodipodi:nodetypes="ccccc" />
      <path
         sodipodi:nodetypes="cccc"
         id="path3733"
         d="m 17.762301,15.001755 1.550959,3.023293 0.720087,0 c -1.278971,-3.075619 -1.532841,-3.065583 -2.271046,-3.023293 z"
         style="fill:#888a85;fill-opacity:1;stroke:none" />
    </g>
    <path
       style="fill:#b91f39;fill-opacity:1;stroke:#75182c;stroke-width:1;stroke-opacity:1"
       d="m 21.536829,3.5481799 5.09019,0 c 1.072069,0 3.764047,0.4568256 3.964906,1.9351438 l 2.005151,14.7578533 c 0,6.206702 -17.14588,6.17623 -16.9358,0 l 1.90932,-14.7578533 c 0.191103,-1.4771082 2.894163,-1.9351438 3.966233,-1.9351438 z"
       id="rect3015"
       inkscape:connector-curvature="0"
       sodipodi:nodetypes="sssccss" />
    <rect
       style="fill:#555753;fill-opacity:1;stroke:#55182c;stroke-width:1.15300524;stroke-opacity:1"
       id="rect3786"
       width="10.835132"
       height="6.8081098"
       x="18.614201"
       y="7.5834136" />
    <rect
       style="opacity:0.75;fill:#000000;fill-opacity:1;stroke:none"
       id="rect3790"
       width="4.0823379"
       height="2.107219"
       x="21.910318"
       y="4.1045475" />
    <path
       sodipodi:type="arc"
       style="opacity:0.75;fill:#fdd59c;fill-opacity:1;stroke:none"
       id="path3792"
       sodipodi:cx="24.151794"
       sodipodi:cy="6.703835"
       sodipodi:rx="1.2926311"
       sodipodi:ry="1.2926311"
       d="m 25.444426,6.703835 a 1.2926311,1.2926311 0 1 1 -2.585263,0 1.2926311,1.2926311 0 1 1 2.585263,0 z"
       transform="matrix(0.77192979,0,0,0.77192979,5.34956,0.02146565)" />
    <rect
       y="12.922067"
       x="19.052923"
       height="2.107219"
       width="9.7971287"
       id="rect3794"
       style="opacity:0.75000000000000000;fill:#e62a3f;fill-opacity:1;stroke:none" />
    <rect
       y="18.031332"
       x="16.966572"
       height="2.107219"
       width="4.0823379"
       id="rect3796"
       style="opacity:0.75;fill:#000000;fill-opacity:1;stroke:none" />
    <path
       transform="matrix(0.77192979,0,0,0.77192979,-0.68271894,13.948249)"
       d="m 25.444426,6.703835 a 1.2926311,1.2926311 0 1 1 -2.585263,0 1.2926311,1.2926311 0 1 1 2.585263,0 z"
       sodipodi:ry="1.2926311"
       sodipodi:rx="1.2926311"
       sodipodi:cy="6.703835"
       sodipodi:cx="24.151794"
       id="path3798"
       style="opacity:0.75;fill:#fdd59c;fill-opacity:1;stroke:none"
       sodipodi:type="arc" />
    <rect
       style="opacity:0.75;fill:#000000;fill-opacity:1;stroke:none"
       id="rect3800"
       width="4.0823379"
       height="2.107219"
       x="26.944778"
       y="18.031332" />
    <path
       sodipodi:type="arc"
       style="opacity:0.75;fill:#fdd59c;fill-opacity:1;stroke:none"
       id="path3802"
       sodipodi:cx="24.151794"
       sodipodi:cy="6.703835"
       sodipodi:rx="1.2926311"
       sodipodi:ry="1.2926311"
       d="m 25.444426,6.703835 a 1.2926311,1.2926311 0 1 1 -2.585263,0 1.2926311,1.2926311 0 1 1 2.585263,0 z"
       transform="matrix(0.77192979,0,0,0.77192979,11.336483,13.948249)" />
    <path
       sodipodi:type="arc"
       style="opacity:0.25;fill:#fdd59c;fill-opacity:1;stroke:none"
       id="path3804"
       sodipodi:cx="24.151794"
       sodipodi:cy="6.703835"
       sodipodi:rx="1.2926311"
       sodipodi:ry="1.2926311"
       d="m 25.444426,6.703835 a 1.2926311,1.2926311 0 1 1 -2.585263,0 1.2926311,1.2926311 0 1 1 2.585263,0 z"
       transform="matrix(0.77192979,0,0,0.77192979,1.3129222,13.948249)" />
    <path
       transform="matrix(0.77192979,0,0,0.77192979,9.2954868,13.948249)"
       d="m 25.444426,6.703835 a 1.2926311,1.2926311 0 1 1 -2.585263,0 1.2926311,1.2926311 0 1 1 2.585263,0 z"
       sodipodi:ry="1.2926311"
       sodipodi:rx="1.2926311"
       sodipodi:cy="6.703835"
       sodipodi:cx="24.151794"
       id="path3806"
       style="opacity:0.25;fill:#fdd59c;fill-opacity:1;stroke:none"
       sodipodi:type="arc" />
    <path
       style="opacity:0.5;fill:none;stroke:#000000;stroke-width:1.01689649px;stroke-linecap:square;stroke-linejoin:miter;stroke-opacity:1"
       d="m 22.496318,18.488163 0,1.031824"
       id="path3810"
       inkscape:connector-curvature="0" />
    <path
       inkscape:connector-curvature="0"
       id="path3812"
       d="m 25.444424,18.488163 0,1.031824"
       style="opacity:0.5;fill:none;stroke:#000000;stroke-width:1.01689649px;stroke-linecap:square;stroke-linejoin:miter;stroke-opacity:1" />
    <path
       style="opacity:0.5;fill:none;stroke:#000000;stroke-width:1.01689649px;stroke-linecap:square;stroke-linejoin:miter;stroke-opacity:1"
       d="m 23.993049,18.488163 0,1.031824"
       id="path3814"
       inkscape:connector-curvature="0" />
    <path
       inkscape:connector-curvature="0"
       id="path3816"
       d="m 19.593567,14.367447 0,0.179344"
       style="opacity:0.5;fill:none;stroke:#000000;stroke-width:1.01689649px;stroke-linecap:square;stroke-linejoin:miter;stroke-opacity:1" />
    <path
       style="opacity:0.5;fill:none;stroke:#000000;stroke-width:1.01689649px;stroke-linecap:square;stroke-linejoin:miter;stroke-opacity:1"
       d="m 21.543853,14.367447 0,0.179344"
       id="path3818"
       inkscape:connector-curvature="0" />
    <path
       inkscape:connector-curvature="0"
       id="path3820"
       d="m 23.448783,14.367447 0,0.179344"
       style="opacity:0.5;fill:none;stroke:#000000;stroke-width:1.01689649px;stroke-linecap:square;stroke-linejoin:miter;stroke-opacity:1" />
    <path
       style="opacity:0.5;fill:none;stroke:#000000;stroke-width:1.01689649px;stroke-linecap:square;stroke-linejoin:miter;stroke-opacity:1"
       d="m 25.580491,14.367447 0,0.179344"
       id="path3822"
       inkscape:connector-curvature="0" />
    <path
       inkscape:connector-curvature="0"
       id="path3824"
       d="m 27.485421,14.367447 0,0.179344"
       style="opacity:0.5;fill:none;stroke:#000000;stroke-width:1.01689649px;stroke-linecap:square;stroke-linejoin:miter;stroke-opacity:1" />
    <path
       inkscape:connector-curvature="0"
       id="path3826"
       d="m 19.684278,9.5971633 0,3.0777767"
       style="opacity:0.5;fill:none;stroke:#000000;stroke-width:1.01689649px;stroke-linecap:square;stroke-linejoin:miter;stroke-opacity:1" />
    <path
       style="opacity:0.5;fill:none;stroke:#000000;stroke-width:1.01689649px;stroke-linecap:round;stroke-linejoin:miter;stroke-opacity:1"
       d="M 20.549532,10.956389 21.72575,12.69096"
       id="path3828"
       inkscape:connector-curvature="0" />
  </g>
</svg>
