<?xml version="1.0" encoding="UTF-8" standalone="no"?>
<!-- Created with Inkscape (http://www.inkscape.org/) -->

<svg
   xmlns:dc="http://purl.org/dc/elements/1.1/"
   xmlns:cc="http://creativecommons.org/ns#"
   xmlns:rdf="http://www.w3.org/1999/02/22-rdf-syntax-ns#"
   xmlns:svg="http://www.w3.org/2000/svg"
   xmlns="http://www.w3.org/2000/svg"
   xmlns:xlink="http://www.w3.org/1999/xlink"
   xmlns:sodipodi="http://sodipodi.sourceforge.net/DTD/sodipodi-0.dtd"
   xmlns:inkscape="http://www.inkscape.org/namespaces/inkscape"
   width="48"
   height="48"
   id="svg2"
   version="1.1"
   inkscape:version="0.48.3.1 r9886"
   inkscape:export-filename="C:\Users\Thomas Weinert\Projekte\Status Monitor\src\img\twitter.png"
   inkscape:export-xdpi="90"
   inkscape:export-ydpi="90"
   sodipodi:docname="New document 1">
  <defs
     id="defs4">
    <linearGradient
       inkscape:collect="always"
       id="linearGradient3013">
      <stop
         style="stop-color:#ffffff;stop-opacity:1;"
         offset="0"
         id="stop3015" />
      <stop
         style="stop-color:#ffffff;stop-opacity:0;"
         offset="1"
         id="stop3017" />
    </linearGradient>
    <linearGradient
       inkscape:collect="always"
       xlink:href="#linearGradient3013"
       id="linearGradient3019"
       x1="9"
       y1="6"
       x2="9"
       y2="36"
       gradientUnits="userSpaceOnUse" />
    <linearGradient
       inkscape:collect="always"
       xlink:href="#linearGradient3013"
       id="linearGradient3025"
       gradientUnits="userSpaceOnUse"
       x1="9"
       y1="6"
       x2="9"
       y2="36" />
  </defs>
  <sodipodi:namedview
     id="base"
     pagecolor="#ffffff"
     bordercolor="#666666"
     borderopacity="1.0"
     inkscape:pageopacity="0.0"
     inkscape:pageshadow="2"
     inkscape:zoom="18.171723"
     inkscape:cx="23.930165"
     inkscape:cy="25.480913"
     inkscape:document-units="px"
     inkscape:current-layer="layer1"
     showgrid="true"
     inkscape:snap-grids="false"
     inkscape:window-width="1920"
     inkscape:window-height="1178"
     inkscape:window-x="-8"
     inkscape:window-y="-8"
     inkscape:window-maximized="1">
    <inkscape:grid
       type="xygrid"
       id="grid3004"
       empspacing="5"
       visible="true"
       enabled="true"
       snapvisiblegridlinesonly="true" />
  </sodipodi:namedview>
  <metadata
     id="metadata7">
    <rdf:RDF>
      <cc:Work
         rdf:about="">
        <dc:format>image/svg+xml</dc:format>
        <dc:type
           rdf:resource="http://purl.org/dc/dcmitype/StillImage" />
        <dc:title></dc:title>
      </cc:Work>
    </rdf:RDF>
  </metadata>
  <g
     inkscape:label="Layer 1"
     inkscape:groupmode="layer"
     id="layer1"
     transform="translate(0,-1004.3622)">
    <g
       id="g3021"
       transform="matrix(1.1999991,0,0,1.1999991,-4.7999791,-205.67154)">
      <rect
         ry="4.0000172"
         rx="4.0000172"
         y="1008.3622"
         x="4"
         height="40"
         width="40"
         id="rect3006"
         style="fill:#00aced;fill-opacity:1;stroke:none" />
      <path
         id="rect3008"
         transform="translate(0,1004.3622)"
         d="M 8,4 C 5.7839905,4 4,5.7839905 4,8 l 0,19.25 c 15.912041,0.845191 26.571925,-5.848905 40,-4.9375 L 44,8 C 44,5.7839905 42.21601,4 40,4 L 8,4 z"
         style="opacity:0.5;fill:url(#linearGradient3025);fill-opacity:1;stroke:none"
         inkscape:connector-curvature="0" />
    </g>
    <path
       style="fill:#ffffff;fill-opacity:1;stroke:none"
       d="m 8.8743285,1015.6186 c -2.0774042,4.0472 0.053121,7.806 1.9568225,9.5847 -0.720743,-0.063 -2.3636735,-0.5973 -2.955201,-1.1181 0.1703957,5.0432 3.372668,6.2019 5.391244,7.2679 -0.637479,0.2438 -1.505921,0.3023 -2.675653,0.1186 1.599983,4.0607 4.260183,4.6479 6.349685,4.9519 -2.894755,2.0143 -6.282098,3.352 -10.343199,2.7154 11.793346,7.4296 30.242641,1.9298 31.029595,-17.771 1.391941,-1.0096 2.785764,-2.017 3.55423,-3.7539 -1.144808,0.6656 -2.449356,1.065 -3.913646,1.1981 0.958648,-1.2738 2.500514,-1.8815 2.795458,-3.9136 -1.305198,0.9565 -2.79797,1.3502 -4.312993,1.6771 -6.772529,-5.7626 -13.618169,0.9737 -12.260081,6.3498 -5.707736,0.5623 -11.677328,-3.5995 -14.6162615,-7.3081 z"
       id="path3002"
       inkscape:connector-curvature="0"
       sodipodi:nodetypes="cccccccccccccc"
       inkscape:export-xdpi="90"
       inkscape:export-ydpi="90" />
  </g>
</svg>
